 <svg  version="1.0" xmlns="http://www.w3.org/2000/svg"  width="300.000000pt" height="300.000000pt" viewBox="0 0 300.000000 300.000000"  preserveAspectRatio="xMidYMid meet">  <g transform="translate(0.000000,300.000000) scale(0.050000,-0.050000)" fill="#7af599" stroke="none"> <path d="M2539 5323 c-237 -117 -582 -285 -766 -373 -910 -434 -867 -406 -905 -588 -28 -136 -153 -681 -267 -1172 -47 -198 -89 -381 -93 -406 -17 -86 -104 -434 -118 -468 -9 -23 16 -70 83 -151 53 -64 125 -153 160 -196 757 -951 1139 -1429 1174 -1469 l43 -50 1149 0 1149 0 137 170 c76 94 149 184 161 200 21 27 123 153 217 269 18 23 238 297 488 610 l456 570 -34 160 c-19 89 -47 215 -62 281 -107 465 -154 667 -199 860 -28 121 -87 380 -131 576 -44 196 -86 365 -93 377 -11 18 -358 191 -758 377 -77 36 -404 195 -727 353 -324 158 -598 286 -610 285 -13 0 -217 -97 -454 -215z m725 -181 c135 -64 431 -207 656 -315 226 -109 516 -248 645 -308 323 -150 314 -141 357 -351 20 -98 45 -214 56 -258 11 -44 24 -102 30 -130 15 -69 86 -377 132 -570 21 -88 42 -182 47 -210 5 -27 20 -95 33 -150 12 -55 41 -176 63 -270 21 -93 43 -187 47 -209 5 -24 -27 -83 -86 -157 -141 -178 -455 -572 -852 -1069 l-355 -445 -1038 0 -1037 0 -262 325 c-144 179 -302 375 -350 435 -520 650 -690 867 -690 881 0 9 19 91 41 183 45 180 95 396 111 476 6 28 73 325 149 660 77 336 144 631 150 657 11 46 308 199 1329 684 149 71 329 158 400 193 167 82 139 85 424 -52z"/> <path d="M2600 4674 c-203 -102 -543 -268 -754 -370 -383 -185 -385 -186 -398 -260 -13 -72 -101 -460 -266 -1168 -45 -195 -82 -371 -81 -390 0 -20 124 -190 275 -378 151 -189 386 -484 522 -655 l248 -313 842 0 c463 0 851 7 863 15 11 8 125 146 253 305 127 160 358 448 514 640 309 383 298 359 243 577 -35 141 -281 1228 -312 1380 -12 61 -29 74 -216 163 -112 52 -454 218 -761 368 -307 149 -568 271 -580 271 -12 -1 -188 -84 -392 -185z m675 -141 c140 -71 440 -216 665 -323 226 -107 417 -201 425 -208 20 -18 312 -1284 326 -1412 l11 -100 -226 -282 c-124 -155 -334 -418 -466 -585 l-239 -303 -771 0 -770 0 -92 115 c-112 141 -817 1027 -841 1057 -16 20 307 1478 334 1506 20 21 1338 659 1364 661 14 0 140 -56 280 -126z"/> <path d="M1624 3005 c-36 -85 -64 -166 -64 -180 0 -40 36 -29 50 15 19 60 154 56 195 -5 63 -92 57 -11 -9 148 -87 209 -95 210 -172 22z m125 -40 c12 -39 6 -45 -38 -45 -56 0 -66 35 -29 105 25 45 39 32 67 -60z"/> <path d="M2033 3147 c-19 -19 -16 -292 4 -323 11 -18 52 -24 125 -20 130 7 135 44 8 52 l-90 6 0 149 c0 137 -12 171 -47 136z"/> <path d="M2400 3140 c0 -11 27 -20 60 -20 l60 0 0 -160 c0 -129 6 -160 30 -160 24 0 30 31 30 160 l0 160 60 0 c33 0 60 9 60 20 0 12 -63 20 -150 20 -87 0 -150 -8 -150 -20z"/> <path d="M2926 3130 c-166 -116 -14 -414 166 -327 96 46 62 79 -46 46 -66 -20 -154 75 -137 147 25 100 79 136 162 106 81 -29 107 -18 69 28 -32 39 -158 39 -214 0z"/> <path d="M3348 3133 c-5 -15 -7 -93 -4 -175 l6 -148 127 -6 c97 -5 125 0 118 20 -5 16 -42 26 -97 26 -81 0 -88 4 -94 55 -6 51 -1 55 65 55 39 0 71 9 71 20 0 11 -31 20 -70 20 -64 0 -70 5 -70 60 0 59 2 60 100 60 55 0 100 9 100 20 0 32 -239 25 -252 -7z"/> <path d="M3740 3146 c-1 -36 151 -346 170 -346 19 0 157 299 154 333 -4 56 -46 11 -88 -94 -60 -149 -74 -150 -129 -4 -36 97 -107 170 -107 111z"/> <path d="M4273 2996 c-40 -92 -73 -173 -73 -181 0 -33 58 -12 70 25 10 31 30 40 90 40 60 0 80 -9 90 -40 12 -37 70 -58 70 -25 0 31 -139 335 -156 340 -9 3 -50 -68 -91 -159z m125 1 c12 -35 22 -66 22 -70 0 -4 -28 -7 -62 -7 -51 0 -60 6 -48 35 8 19 19 51 25 70 15 53 39 42 63 -28z"/> <path d="M2953 2535 c-17 -27 -24 -74 -18 -120 11 -89 45 -101 45 -15 0 33 10 60 21 60 13 0 16 17 9 40 -7 23 -4 40 9 40 11 0 21 9 21 20 0 37 -59 20 -87 -25z"/> <path d="M3115 2534 c-33 -49 -21 -204 15 -204 22 0 50 146 35 185 -5 14 1 25 13 25 12 0 22 9 22 20 0 37 -55 20 -85 -26z"/> <path d="M2460 2480 c-61 -61 -7 -172 75 -156 55 11 53 56 -3 56 -39 0 -52 10 -52 40 0 32 14 40 65 41 61 0 63 2 26 30 -51 38 -63 37 -111 -11z"/> <path d="M2700 2480 c-61 -61 -45 -136 31 -143 98 -9 129 3 129 49 0 99 -98 156 -160 94z m96 -65 c-3 -25 -19 -45 -36 -45 -16 0 -33 20 -36 45 -5 35 3 45 36 45 33 0 41 -10 36 -45z"/> <path d="M3285 2477 c-66 -66 6 -175 96 -147 56 18 48 53 -9 39 -26 -7 -54 -3 -61 9 -8 14 9 22 49 22 54 0 62 7 56 45 -7 52 -91 72 -131 32z"/> </g> </svg> 